<svg xmlns="http://www.w3.org/2000/svg" width="1320" height="258" fill="none" viewBox="0 0 1320 258"><path fill="url(#paint0_linear_1555_3397)" fill-rule="evenodd" d="M160.939 170.624s43.363 9.53 64.193 18.745c20.83 9.215 23.12 20.839 23.12 20.839s14.241 11.125 27.071 14.968c12.83 3.842 23.88-6.144 34.409-5.612s21.709 25.93 21.709 25.93l60.242 6.751 38.653 5.297s-47.662-1.443-57.193-.586c-9.53.858-67.948 1.357-78.477.825-10.529-.532-14.469-8.835-27.657-7.446-13.188 1.389-28.222 3.072-42.463.163-14.241-2.909-39.25-12.265-51.559-18.104-12.309-5.84-28.72-17.367-28.72-17.367l-25.237-22.37-32.976-15.738L0 57.385s82.494 29.62 111.671 49.038c11.039 7.348 49.268 64.201 49.268 64.201z" clip-rule="evenodd" opacity="0.3" style="mix-blend-mode: screen;"></path><path fill="url(#paint1_linear_1555_3397)" fill-rule="evenodd" d="M931.768 145.334s-40.715 17.67-62.955 22.403c-22.241 4.732-30.946-3.354-30.946-3.354s-18.062-.673-30.719 3.723c-12.656 4.396-16.281 9.768-25.084 15.456-8.803 5.687-28.341-16.064-28.341-16.064l-46.511 11.158-61.241 11.396s51.428-9.768 62.869-25.897c11.809-16.585 54.652-5.427 63.498-11.147 8.847-5.72 16.901-1.313 26.778-10.17 9.878-8.857 21.058-19.005 34.322-24.964 13.264-5.959 39-13.025 52.405-15.521 13.405-2.497 33.432-2.746 33.432-2.746l33.562 3.353 35.982-6.512 139.731 46.466s-84.2 24.237-119.24 25.604c-13.251.51-77.542-23.184-77.542-23.184z" clip-rule="evenodd" opacity="0.3" style="mix-blend-mode: screen;"></path><path fill="url(#paint2_linear_1555_3397)" fill-rule="evenodd" d="M1168.01 125.124s-42.51 12.786-62.58 23.553c-20.07 10.767-21.47 22.544-21.47 22.544s-13.36 12.21-25.87 16.975c-12.5 4.765-24.28-4.341-34.73-2.984-10.45 1.356-19.68 27.525-19.68 27.525l-59.548 11.299-38.153 8.238s47.423-5.047 56.985-4.927c9.563.119 67.866-3.799 78.316-5.124 10.45-1.324 13.76-9.909 27.02-9.529 13.25.38 28.35.922 42.33-3.061 13.98-3.984 38.2-15.196 50.04-21.968 11.84-6.773 27.31-19.472 27.31-19.472l23.46-24.226 31.7-18.246L1319.9 0s-79.98 35.818-107.62 57.374c-10.47 8.162-44.27 67.75-44.27 67.75z" clip-rule="evenodd" opacity="0.3" style="mix-blend-mode: screen;"></path><path fill="url(#paint3_linear_1555_3397)" fill-rule="evenodd" d="M413.915 75.927s34.343 15.99 53.253 20.536c18.91 4.545 26.501-2.125 26.501-2.125s15.434-.148 26.131 3.89c10.697 4.036 13.635 8.664 21.051 13.745 7.415 5.08 23.294-1.709 23.294-1.709l43.362 8.101L652 128s-44.363-10.679-50.37-16.166c-6.007-5.487-44.363-20.554-51.779-25.634-7.415-5.081-14.405-1.515-22.626-9.238-8.222-7.723-17.529-16.628-28.736-22.078-11.206-5.45-32.98-12.009-44.363-14.43-11.383-2.42-28.485-3.13-28.485-3.13l-28.735 2.069L366.317 33 246 69.212s71.3 22.65 101.176 24.618c11.308.748 66.739-17.903 66.739-17.903z" clip-rule="evenodd" opacity="0.3" style="mix-blend-mode: screen;"></path><defs><linearGradient id="paint0_linear_1555_3397" x1="-4.693" x2="434.708" y1="165.355" y2="143.006" gradientUnits="userSpaceOnUse"><stop stop-color="#6008D0"></stop><stop offset="1"></stop></linearGradient><linearGradient id="paint1_linear_1555_3397" x1="640.707" x2="1127.45" y1="146.825" y2="87.325" gradientUnits="userSpaceOnUse"><stop stop-color="#6008D0"></stop><stop offset="1"></stop></linearGradient><linearGradient id="paint2_linear_1555_3397" x1="901.464" x2="1324.45" y1="125.009" y2="107.136" gradientUnits="userSpaceOnUse"><stop stop-color="#6008D0"></stop><stop offset="1"></stop></linearGradient><linearGradient id="paint3_linear_1555_3397" x1="241.572" x2="652.973" y1="84.129" y2="42.44" gradientUnits="userSpaceOnUse"><stop stop-color="#6008D0"></stop><stop offset="1"></stop></linearGradient></defs></svg>